<?xml version="1.0" standalone="no"?>
<!DOCTYPE svg PUBLIC "-//W3C//DTD SVG 20010904//EN"
 "http://www.w3.org/TR/2001/REC-SVG-20010904/DTD/svg10.dtd">
<svg version="1.0" xmlns="http://www.w3.org/2000/svg"
 width="800.000000pt" height="800.000000pt" viewBox="0 0 800.000000 800.000000"
 preserveAspectRatio="xMidYMid meet">

<g transform="translate(0.000000,800.000000) scale(0.100000,-0.100000)"
fill="#000000" stroke="none">
<path d="M3280 7043 c-476 -34 -1004 -404 -1219 -853 -23 -47 -49 -118 -59
-158 l-19 -72 -84 -52 c-114 -69 -267 -224 -333 -336 -90 -156 -171 -397 -191
-571 -7 -59 -11 -68 -61 -122 -189 -206 -296 -449 -339 -769 -30 -222 -14
-427 50 -617 43 -128 81 -204 160 -318 l62 -90 -19 -55 c-203 -589 86 -1250
672 -1540 57 -28 69 -39 100 -93 111 -194 333 -398 555 -509 89 -45 223 -93
339 -121 126 -30 476 -32 606 -3 156 34 333 103 452 176 l49 31 29 -21 c44
-32 225 -115 310 -143 161 -53 229 -62 460 -62 187 1 227 4 309 23 182 44 349
117 505 220 105 69 282 249 354 359 33 51 62 96 64 101 1 5 32 24 68 42 347
173 598 475 694 833 61 226 54 482 -18 694 l-24 70 37 49 c205 271 286 605
237 974 -42 313 -156 572 -336 765 l-56 60 -18 109 c-65 401 -241 695 -517
865 l-82 51 -19 72 c-67 267 -319 579 -631 782 -139 91 -332 173 -480 206
-273 59 -666 -5 -859 -142 -28 -19 -28 -19 -55 0 -145 102 -476 181 -693 165z
m195 -264 c161 -22 319 -77 373 -128 l22 -22 0 -417 c0 -468 -3 -489 -69 -627
-87 -179 -241 -267 -466 -267 -97 0 -176 22 -245 69 -25 16 -49 23 -83 23 -42
0 -54 -5 -82 -33 -41 -41 -52 -90 -31 -140 19 -48 112 -108 220 -144 72 -24
96 -27 221 -28 115 0 155 4 223 23 104 28 199 71 263 118 l49 36 0 -1032 0
-1032 -35 -48 c-92 -125 -262 -172 -400 -111 -59 26 -128 91 -164 155 -20 37
-41 58 -67 71 -94 45 -199 -37 -180 -140 10 -52 100 -179 164 -231 115 -94
229 -134 383 -134 102 0 201 22 267 61 l32 18 0 -638 0 -639 -63 42 c-79 53
-163 80 -247 81 -75 0 -110 -18 -134 -70 -21 -44 -20 -83 4 -122 24 -41 67
-63 122 -63 80 0 206 -97 258 -200 25 -49 28 -44 -65 -92 -75 -39 -200 -81
-307 -104 -121 -27 -362 -25 -484 4 -226 51 -449 174 -591 324 l-33 34 79 12
c337 53 611 292 650 567 5 35 7 74 4 87 -22 85 -115 124 -190 78 -39 -23 -58
-59 -67 -124 -13 -104 -109 -219 -242 -288 -95 -49 -164 -68 -253 -68 -98 1
-141 11 -254 62 -449 201 -701 648 -622 1103 9 48 34 136 56 196 37 99 40 111
29 144 -7 20 -31 58 -55 85 -92 104 -167 241 -212 385 -25 85 -27 102 -28 285
0 213 11 287 65 448 25 73 98 223 120 245 4 5 18 -17 29 -48 58 -155 178 -350
241 -393 52 -35 113 -27 158 23 32 34 34 41 30 89 -4 42 -13 63 -52 116 -60
81 -140 244 -161 329 -33 129 -37 215 -14 325 42 205 110 366 211 495 60 77
138 138 255 200 l93 48 40 -51 c106 -138 271 -216 459 -216 224 0 425 125 520
323 72 151 75 237 8 293 -27 23 -38 26 -86 22 -45 -4 -59 -10 -82 -36 -16 -18
-31 -44 -34 -59 -29 -145 -119 -245 -251 -279 -156 -41 -333 53 -388 205 -28
79 -20 198 20 271 35 65 190 225 289 298 249 183 529 266 780 231z m1405 -22
c229 -64 447 -200 624 -388 121 -129 234 -310 239 -385 2 -27 -1 -30 -73 -50
-186 -54 -373 -33 -519 57 -111 68 -141 75 -199 45 -58 -30 -80 -117 -46 -176
20 -33 119 -100 201 -136 32 -14 59 -27 61 -29 2 -2 -10 -27 -26 -56 -51 -93
-66 -154 -66 -264 1 -73 6 -115 21 -157 87 -247 331 -398 581 -360 100 16 195
60 216 101 49 94 -16 200 -117 188 -23 -2 -62 -12 -87 -22 -65 -25 -164 -16
-224 19 -147 86 -181 278 -71 412 45 54 101 81 211 100 49 8 131 29 183 46
l94 32 51 -27 c213 -112 358 -341 426 -675 17 -86 19 -112 10 -170 -23 -151
-78 -282 -184 -441 -60 -89 -67 -120 -41 -171 35 -68 116 -91 181 -51 54 33
169 221 240 391 l11 25 25 -41 c69 -109 121 -241 154 -394 15 -66 19 -127 19
-275 0 -169 -3 -199 -23 -270 -48 -167 -122 -303 -186 -340 -87 -51 -153 -68
-266 -69 -96 0 -112 3 -183 32 -88 36 -126 40 -167 16 -81 -48 -80 -172 2
-222 18 -11 67 -32 108 -48 69 -25 87 -27 220 -28 80 -1 166 3 191 7 l46 8 21
-73 c89 -305 29 -628 -163 -878 -44 -57 -154 -168 -195 -197 -23 -16 -23 -16
-16 8 15 53 18 227 6 312 -15 105 -38 146 -96 166 -50 17 -84 10 -127 -28
l-32 -29 0 -199 c-1 -217 -10 -271 -75 -426 -98 -236 -329 -460 -581 -562
-379 -153 -863 -112 -1047 90 -141 154 -92 402 87 445 38 9 59 9 82 1 75 -26
148 1 175 66 31 73 -9 149 -93 177 -84 29 -236 17 -312 -24 l-21 -11 0 685 c0
645 1 688 19 745 38 124 111 178 227 168 80 -6 149 -43 229 -123 103 -103 175
-274 175 -416 0 -75 20 -122 62 -148 71 -43 160 -11 188 67 12 35 12 59 3 145
-7 57 -22 134 -33 171 -12 38 -19 71 -16 75 3 3 34 9 68 14 122 16 243 68 282
121 41 55 21 140 -41 178 -41 26 -83 22 -170 -15 -79 -34 -165 -43 -245 -26
-48 11 -84 28 -154 76 -122 83 -182 113 -268 131 -85 18 -182 12 -264 -17 -31
-11 -58 -20 -59 -20 -2 0 -3 212 -3 470 0 433 3 495 25 461 3 -5 42 -24 88
-42 78 -32 88 -33 212 -33 118 0 136 3 200 27 89 35 153 77 204 132 36 39 41
51 41 91 0 122 -131 171 -225 84 -161 -149 -425 -93 -519 110 l-26 55 0 518 0
518 58 -45 c68 -53 147 -91 222 -107 64 -13 183 -7 223 11 73 35 88 143 28
203 -29 30 -35 31 -135 37 -97 5 -108 8 -153 39 -86 59 -165 178 -207 311 -38
123 -40 145 -14 171 51 49 207 104 363 129 96 15 268 4 365 -23z"/>
<path d="M2156 5489 c-53 -15 -96 -72 -96 -126 1 -39 50 -161 100 -245 51 -85
171 -213 259 -276 59 -42 62 -46 45 -59 -43 -31 -115 -107 -144 -153 -90 -140
-104 -340 -36 -494 50 -110 147 -210 255 -261 113 -54 261 -70 331 -34 66 33
89 113 50 176 -28 46 -67 63 -147 63 -159 0 -272 113 -273 270 0 148 102 257
250 268 58 4 75 0 151 -31 126 -52 206 -103 279 -176 73 -74 112 -139 135
-226 44 -171 -20 -376 -136 -435 -119 -61 -100 -216 29 -245 73 -16 216 88
285 206 64 108 104 290 92 412 -13 126 -65 270 -134 372 -37 54 -153 164 -225
212 -39 26 -152 84 -251 128 -397 178 -530 278 -617 464 -22 47 -48 101 -57
120 -27 58 -87 87 -145 70z"/>
<path d="M1914 3620 c-120 -31 -250 -106 -285 -163 -42 -69 -11 -153 66 -182
52 -20 79 -14 145 34 134 97 292 94 399 -7 88 -84 133 -214 132 -387 0 -182
-54 -329 -179 -494 -78 -103 -89 -140 -58 -200 33 -64 125 -84 185 -42 69 49
211 274 250 394 7 20 14 37 17 37 2 0 31 -22 64 -49 111 -89 281 -158 367
-148 106 12 148 142 69 216 -12 11 -48 28 -79 36 -93 24 -157 63 -238 144 -77
77 -149 196 -149 246 0 35 -38 176 -62 230 -59 132 -163 243 -283 300 -123 58
-232 69 -361 35z"/>
<path d="M5182 4359 c-77 -13 -202 -67 -239 -104 -41 -41 -50 -78 -32 -129 17
-48 67 -86 114 -86 18 0 63 14 101 32 128 58 272 48 389 -26 102 -66 163 -175
174 -314 10 -114 30 -145 109 -167 33 -9 88 12 116 46 34 40 41 88 28 185 -21
159 -75 267 -193 386 -60 60 -95 85 -160 116 -132 64 -268 84 -407 61z"/>
<path d="M5523 2840 c-35 -21 -63 -66 -63 -102 0 -13 9 -56 20 -97 25 -92 25
-144 1 -196 -29 -62 -75 -98 -229 -179 -79 -41 -166 -92 -194 -112 -154 -113
-200 -277 -133 -474 44 -132 104 -179 189 -149 79 28 106 109 65 199 -27 60
-35 122 -19 160 16 37 60 69 205 145 206 109 291 183 348 303 28 59 32 80 35
170 7 168 -35 304 -102 336 -45 21 -84 20 -123 -4z"/>
</g>
</svg>
