<?xml version="1.0" standalone="no"?>
<!DOCTYPE svg PUBLIC "-//W3C//DTD SVG 20010904//EN"
 "http://www.w3.org/TR/2001/REC-SVG-20010904/DTD/svg10.dtd">
<svg version="1.0" xmlns="http://www.w3.org/2000/svg"
 width="35.000000pt" height="35.000000pt" viewBox="0 0 920.000000 980.000000"
 preserveAspectRatio="xMidYMid meet">

<g transform="translate(0.000000,980.000000) scale(0.100000,-0.100000)"
fill="#000000" stroke="none">
<path d="M4526 9786 c-54 -20 -85 -45 -121 -95 l-30 -43 -3 -524 c-1 -328 1
-539 7 -562 24 -85 128 -162 221 -162 92 0 197 76 220 160 6 21 10 243 10 540
0 297 -4 519 -10 540 -13 48 -63 106 -112 131 -53 27 -132 33 -182 15z"/>
<path d="M1551 8556 c-88 -32 -151 -122 -151 -217 1 -100 13 -116 388 -492
191 -191 361 -357 377 -367 114 -71 270 -28 329 92 30 61 35 138 11 196 -11
25 -133 155 -373 396 -384 385 -410 406 -502 405 -25 0 -60 -6 -79 -13z"/>
<path d="M7510 8561 c-61 -20 -104 -59 -442 -398 -240 -240 -362 -370 -373
-395 -23 -56 -19 -134 9 -195 54 -115 201 -162 320 -102 11 6 180 169 375 363
274 272 359 362 377 401 55 116 12 250 -99 306 -44 23 -128 33 -167 20z"/>
<path d="M4410 7693 c-919 -69 -1745 -677 -2084 -1533 -249 -631 -233 -1310
44 -1875 115 -235 237 -408 569 -808 100 -120 215 -263 257 -318 235 -311 375
-603 433 -903 30 -153 30 -153 -23 -167 -55 -14 -120 -67 -147 -122 -66 -128
17 -295 161 -326 71 -15 1889 -15 1960 0 145 31 228 197 162 325 -28 55 -92
109 -148 124 l-46 13 7 61 c10 81 58 276 88 358 117 309 240 499 618 955 332
400 454 573 569 808 208 424 269 898 180 1400 -97 549 -399 1073 -825 1432
-493 416 -1136 624 -1775 576z m-430 -558 c58 -30 90 -84 90 -155 0 -93 -32
-129 -171 -193 -325 -151 -599 -404 -773 -715 -55 -98 -122 -260 -151 -362
-28 -100 -75 -151 -153 -166 -73 -14 -169 43 -193 113 -16 49 -7 109 36 238
147 441 463 842 855 1086 97 60 313 166 350 172 33 5 79 -3 110 -18z"/>
<path d="M305 5576 c-123 -57 -170 -192 -109 -314 32 -65 92 -109 169 -123 34
-6 238 -9 538 -7 439 3 486 5 522 21 156 70 188 265 63 384 -65 63 -67 63
-627 63 l-506 0 -50 -24z"/>
<path d="M7791 5586 c-48 -17 -108 -71 -132 -118 -44 -86 -18 -213 54 -274 71
-60 59 -59 584 -62 300 -2 504 1 538 7 77 14 137 58 169 123 60 121 13 258
-108 314 l-51 24 -510 -1 c-374 0 -519 -4 -544 -13z"/>
<path d="M2195 3266 c-39 -18 -130 -105 -407 -382 -240 -241 -362 -371 -373
-396 -38 -92 -2 -221 77 -278 76 -55 186 -58 265 -6 21 13 192 179 380 368
369 370 382 387 383 486 0 93 -48 168 -135 208 -65 31 -126 31 -190 0z"/>
<path d="M6831 3276 c-88 -32 -151 -122 -151 -217 1 -100 13 -116 388 -492
191 -191 361 -357 377 -367 77 -48 183 -45 260 8 81 56 118 186 80 280 -11 25
-133 155 -373 396 -384 385 -410 406 -502 405 -25 0 -60 -6 -79 -13z"/>
<path d="M3621 1509 c-150 -29 -229 -199 -158 -335 23 -44 89 -98 136 -112 28
-9 300 -12 1003 -12 1066 0 1018 -3 1086 63 52 50 75 103 75 172 0 103 -57
182 -155 216 -50 17 -109 18 -998 18 -520 -1 -965 -5 -989 -10z"/>
<path d="M3561 904 c-152 -76 -171 -293 -34 -387 40 -27 82 -39 201 -56 127
-19 210 -79 277 -201 70 -128 198 -224 334 -250 70 -13 452 -13 522 0 136 26
264 122 335 251 72 132 163 190 330 209 101 11 161 41 199 98 78 118 38 274
-86 336 l-53 26 -986 0 -986 0 -53 -26z"/>
</g>
</svg>
