<?xml version="1.0" standalone="no"?>
<!DOCTYPE svg PUBLIC "-//W3C//DTD SVG 20010904//EN"
 "http://www.w3.org/TR/2001/REC-SVG-20010904/DTD/svg10.dtd">
<svg version="1.0" xmlns="http://www.w3.org/2000/svg"
 width="30" height="30" viewBox="0 0 512.000000 512.000000"
 preserveAspectRatio="xMidYMid meet">
<g transform="translate(0.000000,512.000000) scale(0.100000,-0.100000)"
stroke="none"> 
<path d="M2727 4189 c-32 -11 -77 -31 -100 -46 -23 -14 -336 -212 -694 -440
l-653 -415 0 -728 0 -728 694 -441 c399 -254 716 -450 747 -461 229 -80 475
22 583 241 20 41 41 98 46 128 6 34 10 505 10 1275 0 1051 -2 1230 -15 1279
-42 163 -161 290 -316 338 -84 26 -224 25 -302 -2z"/>
<path d="M4138 3820 c-43 -23 -65 -51 -79 -102 -14 -55 3 -107 57 -170 167
-194 291 -458 340 -723 26 -138 26 -392 0 -530 -49 -265 -173 -529 -340 -723
-54 -63 -71 -115 -57 -169 15 -53 36 -80 83 -104 50 -25 116 -22 157 8 75 56
218 257 304 429 320 634 243 1394 -198 1964 -106 136 -176 168 -267 120z"/>
<path d="M681 3344 c-169 -45 -301 -180 -346 -351 -22 -85 -22 -783 0 -868 45
-172 179 -305 352 -350 36 -9 104 -15 181 -15 l123 0 -7 23 c-4 12 -11 38 -15
57 -5 19 -9 343 -9 720 0 377 4 701 9 720 4 19 11 45 15 58 l7 22 -128 -1
c-78 0 -149 -6 -182 -15z"/>
<path d="M3730 3319 c-60 -24 -100 -85 -100 -152 0 -37 9 -58 52 -123 114
-174 152 -297 152 -484 0 -187 -38 -310 -152 -484 -44 -67 -52 -86 -52 -126 0
-116 115 -190 223 -142 99 44 238 301 289 537 7 34 13 126 13 215 0 163 -9
221 -52 355 -56 173 -174 363 -246 396 -46 20 -88 23 -127 8z"/>
</g>
</svg>
