<?xml version="1.0" standalone="no"?>
<!DOCTYPE svg PUBLIC "-//W3C//DTD SVG 20010904//EN"
 "http://www.w3.org/TR/2001/REC-SVG-20010904/DTD/svg10.dtd">
<svg version="1.0" xmlns="http://www.w3.org/2000/svg"
 width="30" height="30" viewBox="0 0 512.000000 512.000000"
 preserveAspectRatio="xMidYMid meet">

<g transform="translate(0.000000,512.000000) scale(0.100000,-0.100000)"
stroke="none">
<path d="M2727 4189 c-32 -11 -77 -31 -100 -46 -23 -14 -336 -212 -694 -440
l-653 -415 0 -728 0 -728 694 -441 c399 -254 716 -450 747 -461 229 -80 475
22 583 241 20 41 41 98 46 128 6 34 10 505 10 1275 0 1051 -2 1230 -15 1279
-42 163 -161 290 -316 338 -84 26 -224 25 -302 -2z"/>
<path d="M681 3344 c-169 -45 -301 -180 -346 -351 -22 -85 -22 -783 0 -868 45
-172 179 -305 352 -350 36 -9 104 -15 181 -15 l123 0 -7 23 c-4 12 -11 38 -15
57 -5 19 -9 343 -9 720 0 377 4 701 9 720 4 19 11 45 15 58 l7 22 -128 -1
c-78 0 -149 -6 -182 -15z"/>
<path d="M3632 3193 c-39 -8 -99 -76 -107 -122 -14 -82 -7 -92 208 -308 l201
-203 -201 -202 c-215 -217 -225 -231 -208 -310 21 -93 123 -151 212 -118 15 6
117 100 226 208 l197 197 198 -197 c108 -108 210 -202 225 -208 92 -34 194 27
213 127 13 71 2 88 -209 301 l-202 202 197 198 c108 108 202 210 208 225 34
92 -27 194 -127 213 -71 13 -88 2 -301 -209 l-202 -202 -198 197 c-108 108
-210 202 -225 208 -28 10 -62 11 -105 3z"/>
</g>
</svg>
