<?xml version="1.0" standalone="no"?>
<!DOCTYPE svg PUBLIC "-//W3C//DTD SVG 20010904//EN"
 "http://www.w3.org/TR/2001/REC-SVG-20010904/DTD/svg10.dtd">
<svg version="1.0" xmlns="http://www.w3.org/2000/svg"
 width="30" height="30" viewBox="0 0 920.000000 920.000000"
 preserveAspectRatio="xMidYMid meet">

<g transform="translate(0.000000,920.000000) scale(0.100000,-0.100000)"
 stroke="none">
<path d="M3177 9175 c-371 -60 -740 -223 -904 -398 -107 -114 -131 -201 -94
-342 80 -317 55 -749 -59 -1001 -119 -265 -400 -451 -744 -494 -172 -22 -338
-2 -546 64 -204 66 -241 67 -343 13 -101 -53 -194 -171 -295 -373 -106 -212
-169 -429 -179 -619 -6 -123 6 -184 57 -284 40 -79 78 -110 219 -180 174 -87
258 -147 401 -291 144 -144 201 -230 251 -380 29 -84 33 -111 37 -235 4 -159
-8 -236 -57 -358 -62 -157 -184 -318 -336 -446 -112 -95 -191 -146 -320 -206
-61 -29 -126 -65 -144 -80 -73 -62 -117 -210 -107 -356 12 -160 74 -379 163
-572 198 -432 353 -533 685 -448 352 91 685 77 903 -37 126 -66 267 -228 345
-395 55 -116 72 -206 73 -372 0 -176 -17 -266 -82 -413 -59 -134 -74 -192 -69
-276 5 -91 26 -133 109 -221 156 -164 413 -305 739 -405 300 -92 476 -90 615
5 58 40 90 85 149 216 142 317 424 567 731 650 115 31 345 31 460 0 164 -44
312 -131 446 -263 107 -105 170 -194 250 -353 136 -271 215 -335 398 -321 199
15 430 82 624 180 247 125 375 227 430 343 28 61 32 77 32 158 -1 83 -4 98
-43 194 -72 175 -86 249 -86 446 1 202 16 274 94 430 84 170 221 326 345 392
118 62 354 113 527 113 94 0 269 -27 388 -60 168 -46 219 -54 290 -41 86 16
195 69 260 128 162 145 317 466 374 772 21 113 21 268 -1 323 -45 117 -139
211 -273 274 -185 87 -243 126 -356 239 -142 142 -225 296 -266 495 -16 78
-19 121 -15 240 3 87 11 168 21 202 53 191 143 344 287 488 116 116 187 165
361 249 159 78 211 120 251 209 78 174 -88 790 -288 1067 -111 154 -198 209
-330 210 -71 0 -89 -4 -162 -37 -185 -84 -329 -113 -548 -112 -175 0 -235 11
-375 65 -287 110 -522 410 -581 739 -17 95 -14 291 6 384 15 73 29 115 88 266
15 40 21 78 21 141 1 83 0 87 -38 145 -56 86 -201 224 -302 291 -116 75 -270
143 -424 187 -164 46 -235 58 -351 60 -90 1 -98 -1 -144 -29 -52 -32 -150
-141 -177 -197 -9 -18 -37 -76 -62 -128 -101 -209 -303 -398 -521 -486 -325
-133 -669 -105 -936 77 -86 58 -243 217 -302 306 -26 39 -74 128 -106 197 -64
135 -117 204 -185 238 -52 26 -164 32 -279 13z m1783 -2454 c434 -73 841 -284
1152 -598 180 -181 300 -349 408 -568 157 -320 214 -571 214 -945 0 -155 -5
-247 -17 -328 -110 -711 -589 -1344 -1237 -1633 -315 -141 -616 -199 -970
-186 -316 12 -565 72 -835 203 -618 298 -1076 903 -1190 1570 -19 111 -36 365
-30 436 2 29 7 93 10 143 38 562 365 1148 837 1502 319 238 633 366 1028 418
150 20 467 13 630 -14z"/>
</g>
</svg>
