<?xml version="1.0" standalone="no"?>
<!DOCTYPE svg PUBLIC "-//W3C//DTD SVG 20010904//EN"
 "http://www.w3.org/TR/2001/REC-SVG-20010904/DTD/svg10.dtd">
<svg version="1.0" xmlns="http://www.w3.org/2000/svg"
 width="30.000000pt" height="30.000000pt" viewBox="0 0 920.000000 980.000000"
 preserveAspectRatio="xMidYMid meet">

<g transform="translate(0.000000,980.000000) scale(0.100000,-0.100000)"
fill="#000000" stroke="none">
<path d="M4295 9789 c-333 -79 -616 -275 -829 -573 -55 -77 -186 -324 -186
-351 0 -7 -35 -26 -82 -43 -253 -91 -437 -125 -993 -182 -550 -56 -786 -106
-1024 -216 -240 -112 -418 -275 -554 -509 l-47 -80 0 -3526 0 -3526 52 -81
c213 -326 565 -565 993 -677 l97 -25 2899 0 2899 0 136 45 c301 99 542 244
736 442 77 79 174 206 209 275 19 36 19 122 19 3556 l0 3518 -47 82 c-147 252
-356 429 -641 542 -215 85 -451 131 -932 180 -594 61 -826 104 -1042 192 l-57
24 -71 139 c-196 389 -483 647 -861 771 -83 27 -89 28 -359 30 -151 2 -293 -2
-315 -7z m490 -559 c204 -64 355 -197 416 -366 31 -84 31 -226 0 -309 -62
-169 -192 -288 -392 -356 -86 -30 -104 -33 -224 -33 -218 -1 -336 44 -476 184
-168 166 -208 334 -129 541 59 154 232 301 411 349 101 27 291 23 394 -10z
m-2403 -1079 c83 -410 343 -629 843 -708 95 -16 164 -17 515 -14 537 6 1168 6
1690 0 375 -3 439 -2 540 14 314 49 486 123 637 274 66 66 90 99 130 180 45
89 79 200 98 316 3 20 11 37 16 37 27 0 225 -56 309 -87 328 -122 561 -309
673 -538 61 -123 70 -171 77 -385 12 -345 11 -5636 0 -5730 -18 -141 -48 -250
-97 -349 -39 -79 -63 -112 -147 -198 -216 -225 -439 -322 -832 -363 -138 -15
-4015 -15 -4369 -1 -144 6 -269 16 -313 25 -394 85 -711 345 -823 674 -30 90
-33 109 -39 272 -8 221 -8 4939 0 5470 6 378 7 398 29 465 97 294 327 506 705
652 103 40 292 93 320 90 16 -2 22 -19 38 -96z"/>
<path d="M3400 6667 c-3 -2 -286 -7 -629 -11 l-625 -7 -35 -26 c-113 -83 -161
-159 -161 -253 0 -105 76 -212 190 -268 l55 -27 680 -5 c1868 -14 3631 -6
4047 18 136 8 150 11 200 39 78 44 112 103 116 202 3 59 -1 89 -18 133 -26 69
-95 149 -153 177 -41 19 -66 20 -1852 26 -996 3 -1813 4 -1815 2z"/>
<path d="M2231 5672 c-144 -29 -232 -92 -265 -190 -49 -142 20 -283 173 -356
l66 -31 555 -6 c305 -3 1384 -5 2397 -3 l1843 2 53 25 c108 49 177 151 185
273 2 41 -1 86 -7 107 -19 55 -66 113 -117 143 -45 27 -51 27 -283 37 -130 5
-1203 10 -2385 10 -1745 2 -2162 0 -2215 -11z"/>
<path d="M2248 4693 c-143 -24 -220 -66 -262 -143 -81 -149 -13 -331 152 -408
l57 -27 705 -5 c2043 -15 3473 -8 4010 19 169 8 197 16 258 75 19 17 40 43 48
57 74 142 -6 353 -159 419 l-52 23 -2342 1 c-1796 1 -2360 -1 -2415 -11z"/>
<path d="M2901 3719 l-754 -10 -48 -34 c-110 -82 -156 -163 -146 -263 9 -106
76 -195 185 -249 l57 -28 765 -8 c421 -5 1502 -6 2404 -2 1581 5 1640 6 1682
24 63 28 133 98 165 164 72 152 31 295 -105 364 l-51 27 -350 7 c-594 13
-3009 18 -3804 8z"/>
<path d="M4012 2669 c-402 -272 -784 -685 -1075 -1161 -40 -64 -75 -117 -78
-118 -3 0 -66 106 -140 235 -74 129 -138 234 -144 234 -5 0 -147 -69 -314
-153 l-304 -153 89 -53 c259 -156 588 -391 776 -554 48 -42 90 -76 92 -76 2 0
56 62 119 138 324 388 676 717 1005 940 94 64 112 80 112 101 0 14 -5 130 -10
256 -5 127 -10 276 -11 333 -1 56 -4 102 -8 102 -3 -1 -52 -32 -109 -71z"/>
</g>
</svg>
